<?xml version="1.0" encoding="UTF-8"?>
<svg xmlns="http://www.w3.org/2000/svg" viewBox="0 0 426.29 407.49">
    <g id="a" data-name="Background Complete">
        <g>
            <g>
                <polyline points="171.97 368.64 171.97 242.97 198.7 206.49 198.7 138.16"
                          style="fill: none; stroke: #ebebeb; stroke-miterlimit: 10;"/>
                <path
                    d="m196.32,135.82c0,1.31,1.06,2.38,2.37,2.38s2.37-1.06,2.37-2.38-1.06-2.38-2.37-2.38-2.37,1.06-2.37,2.38Z"
                    style="fill: none; stroke: #ebebeb; stroke-miterlimit: 10;"/>
            </g>
            <g>
                <polyline points="178.85 368.64 178.85 247.38 205.58 210.9 205.58 163.15"
                          style="fill: none; stroke: #ebebeb; stroke-miterlimit: 10;"/>
                <path
                    d="m203.21,160.82c0,1.31,1.06,2.38,2.38,2.38s2.37-1.06,2.37-2.38-1.06-2.38-2.37-2.38-2.38,1.06-2.38,2.38Z"
                    style="fill: none; stroke: #ebebeb; stroke-miterlimit: 10;"/>
            </g>
            <g>
                <line x1="165.34" y1="368.64" x2="165.34" y2="202.23"
                      style="fill: none; stroke: #ebebeb; stroke-miterlimit: 10;"/>
                <path
                    d="m162.96,199.85c0,1.31,1.06,2.38,2.37,2.38s2.38-1.06,2.38-2.38-1.06-2.38-2.38-2.38-2.37,1.06-2.37,2.38Z"
                    style="fill: none; stroke: #ebebeb; stroke-miterlimit: 10;"/>
            </g>
            <g>
                <polyline points="158.95 368.64 158.95 284.06 140.8 249.83 140.8 188.47"
                          style="fill: none; stroke: #ebebeb; stroke-miterlimit: 10;"/>
                <path
                    d="m138.43,186.09c0,1.31,1.06,2.38,2.38,2.38s2.37-1.06,2.37-2.38-1.06-2.38-2.37-2.38-2.38,1.06-2.38,2.38Z"
                    style="fill: none; stroke: #ebebeb; stroke-miterlimit: 10;"/>
            </g>
            <g>
                <polyline points="152.6 368.64 152.6 287.72 131.21 249.88 131.21 209.46"
                          style="fill: none; stroke: #ebebeb; stroke-miterlimit: 10;"/>
                <path
                    d="m128.83,207.09c0,1.31,1.06,2.38,2.37,2.38s2.37-1.06,2.37-2.38-1.06-2.38-2.37-2.38-2.37,1.06-2.37,2.38Z"
                    style="fill: none; stroke: #ebebeb; stroke-miterlimit: 10;"/>
            </g>
        </g>
    </g>
    <g id="b" data-name="Shadow">
        <ellipse cx="146.94" cy="390.51" rx="106.41" ry="16.99" style="fill: #ebebeb;"/>
    </g>
    <g id="c" data-name="Server">
        <g>
            <rect x="230.52" y="123.52" width="65.02" height="245.17" style="fill: #37474f;"/>
            <rect x="295.54" y="123.52" width="119.66" height="245.17" style="fill: #455a64;"/>
            <g>
                <rect x="304.51" y="336.89" width="103.21" height="23.84" style="fill: #37474f;"/>
                <g>
                    <rect x="308.86" y="340.83" width="58.75" height="2.01" style="fill: #455a64;"/>
                    <rect x="308.86" y="344.31" width="58.75" height="2.01" style="fill: #455a64;"/>
                    <rect x="308.86" y="347.8" width="58.75" height="2.01" style="fill: #455a64;"/>
                    <rect x="308.86" y="351.29" width="58.75" height="2.01" style="fill: #455a64;"/>
                    <rect x="308.86" y="354.78" width="58.75" height="2.01" style="fill: #455a64;"/>
                </g>
                <g>
                    <path d="m378.32,342.82c0,1.1-.89,2-2,2s-2-.89-2-2,.89-2,2-2,2,.89,2,2Z" style="fill: #ffc727;"/>
                    <path d="m384.9,342.82c0,1.1-.89,2-2,2s-2-.89-2-2,.89-2,2-2,2,.89,2,2Z" style="fill: #ffc727;"/>
                    <path d="m391.47,342.82c0,1.1-.89,2-2,2s-2-.89-2-2,.89-2,2-2,2,.89,2,2Z" style="fill: #ffc727;"/>
                    <path d="m398.05,342.82c0,1.1-.89,2-2,2s-2-.89-2-2,.89-2,2-2,2,.89,2,2Z" style="fill: #ffc727;"/>
                    <path d="m404.63,342.82c0,1.1-.89,2-2,2s-2-.89-2-2,.89-2,2-2,2,.89,2,2Z" style="fill: #ffc727;"/>
                    <path d="m378.32,348.81c0,1.1-.89,2-2,2s-2-.89-2-2,.89-2,2-2,2,.89,2,2Z" style="fill: #ffc727;"/>
                    <path d="m384.9,348.81c0,1.1-.89,2-2,2s-2-.89-2-2,.89-2,2-2,2,.89,2,2Z" style="fill: #ffc727;"/>
                    <path d="m391.47,348.81c0,1.1-.89,2-2,2s-2-.89-2-2,.89-2,2-2,2,.89,2,2Z" style="fill: #ffc727;"/>
                    <path d="m398.05,348.81c0,1.1-.89,2-2,2s-2-.89-2-2,.89-2,2-2,2,.89,2,2Z" style="fill: #ffc727;"/>
                    <path d="m404.63,348.81c0,1.1-.89,2-2,2s-2-.89-2-2,.89-2,2-2,2,.89,2,2Z" style="fill: #ffc727;"/>
                    <circle cx="376.32" cy="354.79" r="2" style="fill: #ffc727;"/>
                    <path d="m384.9,354.79c0,1.1-.89,2-2,2s-2-.89-2-2,.89-2,2-2,2,.89,2,2Z" style="fill: #ffc727;"/>
                    <circle cx="389.48" cy="354.79" r="2" style="fill: #ffc727;"/>
                    <path d="m398.05,354.79c0,1.1-.89,2-2,2s-2-.89-2-2,.89-2,2-2,2,.89,2,2Z" style="fill: #ffc727;"/>
                    <path d="m404.63,354.79c0,1.1-.89,2-2,2s-2-.89-2-2,.89-2,2-2,2,.89,2,2Z" style="fill: #ffc727;"/>
                </g>
                <rect x="370.54" y="340.83" width="1.15" height="15.96" style="fill: #263238;"/>
            </g>
            <g>
                <rect x="304.51" y="308.16" width="103.21" height="23.84" style="fill: #37474f;"/>
                <g>
                    <rect x="308.86" y="312.1" width="58.75" height="2.01" style="fill: #455a64;"/>
                    <rect x="308.86" y="315.59" width="58.75" height="2.01" style="fill: #455a64;"/>
                    <rect x="308.86" y="319.07" width="58.75" height="2.01" style="fill: #455a64;"/>
                    <rect x="308.86" y="322.56" width="58.75" height="2.01" style="fill: #455a64;"/>
                    <rect x="308.86" y="326.05" width="58.75" height="2.01" style="fill: #455a64;"/>
                </g>
                <g>
                    <path d="m378.32,314.09c0,1.1-.89,2-2,2s-2-.89-2-2,.89-2,2-2,2,.89,2,2Z" style="fill: #ffc727;"/>
                    <path d="m384.9,314.09c0,1.1-.89,2-2,2s-2-.89-2-2,.89-2,2-2,2,.89,2,2Z" style="fill: #ffc727;"/>
                    <path d="m391.47,314.09c0,1.1-.89,2-2,2s-2-.89-2-2,.89-2,2-2,2,.89,2,2Z" style="fill: #ffc727;"/>
                    <path d="m398.05,314.09c0,1.1-.89,2-2,2s-2-.89-2-2,.89-2,2-2,2,.89,2,2Z" style="fill: #ffc727;"/>
                    <path d="m404.63,314.09c0,1.1-.89,2-2,2s-2-.89-2-2,.89-2,2-2,2,.89,2,2Z" style="fill: #ffc727;"/>
                    <path d="m378.32,320.08c0,1.1-.89,2-2,2s-2-.89-2-2,.89-2,2-2,2,.89,2,2Z" style="fill: #ffc727;"/>
                    <path d="m384.9,320.08c0,1.1-.89,2-2,2s-2-.89-2-2,.89-2,2-2,2,.89,2,2Z" style="fill: #ffc727;"/>
                    <path d="m391.47,320.08c0,1.1-.89,2-2,2s-2-.89-2-2,.89-2,2-2,2,.89,2,2Z" style="fill: #ffc727;"/>
                    <path d="m398.05,320.08c0,1.1-.89,2-2,2s-2-.89-2-2,.89-2,2-2,2,.89,2,2Z" style="fill: #ffc727;"/>
                    <path d="m404.63,320.08c0,1.1-.89,2-2,2s-2-.89-2-2,.89-2,2-2,2,.89,2,2Z" style="fill: #ffc727;"/>
                    <path d="m378.32,326.07c0,1.1-.89,2-2,2s-2-.89-2-2,.89-2,2-2,2,.89,2,2Z" style="fill: #ffc727;"/>
                    <path d="m384.9,326.07c0,1.1-.89,2-2,2s-2-.89-2-2,.89-2,2-2,2,.89,2,2Z" style="fill: #ffc727;"/>
                    <path d="m391.47,326.07c0,1.1-.89,2-2,2s-2-.89-2-2,.89-2,2-2,2,.89,2,2Z" style="fill: #ffc727;"/>
                    <path d="m398.05,326.07c0,1.1-.89,2-2,2s-2-.89-2-2,.89-2,2-2,2,.89,2,2Z" style="fill: #ffc727;"/>
                    <path d="m404.63,326.07c0,1.1-.89,2-2,2s-2-.89-2-2,.89-2,2-2,2,.89,2,2Z" style="fill: #ffc727;"/>
                </g>
                <rect x="370.54" y="312.1" width="1.15" height="15.96" style="fill: #263238;"/>
            </g>
            <g>
                <rect x="304.51" y="279.43" width="103.21" height="23.84" style="fill: #37474f;"/>
                <g>
                    <rect x="308.86" y="283.37" width="58.75" height="2.01" style="fill: #455a64;"/>
                    <rect x="308.86" y="286.86" width="58.75" height="2.01" style="fill: #455a64;"/>
                    <rect x="308.86" y="290.35" width="58.75" height="2.01" style="fill: #455a64;"/>
                    <rect x="308.86" y="293.83" width="58.75" height="2.01" style="fill: #455a64;"/>
                    <rect x="308.86" y="297.32" width="58.75" height="2.01" style="fill: #455a64;"/>
                </g>
                <g>
                    <circle cx="376.32" cy="285.37" r="2" style="fill: #ffc727;"/>
                    <path d="m384.9,285.37c0,1.1-.89,2-2,2s-2-.89-2-2,.89-2,2-2,2,.89,2,2Z" style="fill: #ffc727;"/>
                    <circle cx="389.48" cy="285.37" r="2" style="fill: #ffc727;"/>
                    <path d="m398.05,285.37c0,1.1-.89,2-2,2s-2-.89-2-2,.89-2,2-2,2,.89,2,2Z" style="fill: #ffc727;"/>
                    <path d="m404.63,285.37c0,1.1-.89,2-2,2s-2-.89-2-2,.89-2,2-2,2,.89,2,2Z" style="fill: #ffc727;"/>
                    <path d="m378.32,291.35c0,1.1-.89,2-2,2s-2-.89-2-2,.89-2,2-2,2,.89,2,2Z" style="fill: #ffc727;"/>
                    <path d="m384.9,291.35c0,1.1-.89,2-2,2s-2-.89-2-2,.89-2,2-2,2,.89,2,2Z" style="fill: #ffc727;"/>
                    <path d="m391.47,291.35c0,1.1-.89,2-2,2s-2-.89-2-2,.89-2,2-2,2,.89,2,2Z" style="fill: #ffc727;"/>
                    <path d="m398.05,291.35c0,1.1-.89,2-2,2s-2-.89-2-2,.89-2,2-2,2,.89,2,2Z" style="fill: #ffc727;"/>
                    <path d="m404.63,291.35c0,1.1-.89,2-2,2s-2-.89-2-2,.89-2,2-2,2,.89,2,2Z" style="fill: #ffc727;"/>
                    <path d="m378.32,297.34c0,1.1-.89,2-2,2s-2-.89-2-2,.89-2,2-2,2,.89,2,2Z" style="fill: #ffc727;"/>
                    <path d="m384.9,297.34c0,1.1-.89,2-2,2s-2-.89-2-2,.89-2,2-2,2,.89,2,2Z" style="fill: #ffc727;"/>
                    <path d="m391.47,297.34c0,1.1-.89,2-2,2s-2-.89-2-2,.89-2,2-2,2,.89,2,2Z" style="fill: #ffc727;"/>
                    <path d="m398.05,297.34c0,1.1-.89,2-2,2s-2-.89-2-2,.89-2,2-2,2,.89,2,2Z" style="fill: #ffc727;"/>
                    <path d="m404.63,297.34c0,1.1-.89,2-2,2s-2-.89-2-2,.89-2,2-2,2,.89,2,2Z" style="fill: #ffc727;"/>
                </g>
                <rect x="370.54" y="283.37" width="1.15" height="15.96" style="fill: #263238;"/>
            </g>
            <g>
                <rect x="304.51" y="250.71" width="103.21" height="23.84" style="fill: #37474f;"/>
                <g>
                    <rect x="308.86" y="254.64" width="58.75" height="2.01" style="fill: #455a64;"/>
                    <rect x="308.86" y="258.13" width="58.75" height="2.01" style="fill: #455a64;"/>
                    <rect x="308.86" y="261.62" width="58.75" height="2.01" style="fill: #455a64;"/>
                    <rect x="308.86" y="265.11" width="58.75" height="2.01" style="fill: #455a64;"/>
                    <rect x="308.86" y="268.59" width="58.75" height="2.01" style="fill: #455a64;"/>
                </g>
                <g>
                    <path d="m378.32,256.64c0,1.1-.89,2-2,2s-2-.89-2-2,.89-2,2-2,2,.89,2,2Z" style="fill: #ffc727;"/>
                    <path d="m384.9,256.64c0,1.1-.89,2-2,2s-2-.89-2-2,.89-2,2-2,2,.89,2,2Z" style="fill: #ffc727;"/>
                    <path d="m391.47,256.64c0,1.1-.89,2-2,2s-2-.89-2-2,.89-2,2-2,2,.89,2,2Z" style="fill: #ffc727;"/>
                    <path d="m398.05,256.64c0,1.1-.89,2-2,2s-2-.89-2-2,.89-2,2-2,2,.89,2,2Z" style="fill: #ffc727;"/>
                    <path d="m404.63,256.64c0,1.1-.89,2-2,2s-2-.89-2-2,.89-2,2-2,2,.89,2,2Z" style="fill: #ffc727;"/>
                    <circle cx="376.32" cy="262.62" r="2" style="fill: #ffc727;"/>
                    <path d="m384.9,262.62c0,1.1-.89,2-2,2s-2-.89-2-2,.89-2,2-2,2,.89,2,2Z" style="fill: #ffc727;"/>
                    <circle cx="389.48" cy="262.62" r="2" style="fill: #ffc727;"/>
                    <path d="m398.05,262.62c0,1.1-.89,2-2,2s-2-.89-2-2,.89-2,2-2,2,.89,2,2Z" style="fill: #ffc727;"/>
                    <path d="m404.63,262.62c0,1.1-.89,2-2,2s-2-.89-2-2,.89-2,2-2,2,.89,2,2Z" style="fill: #ffc727;"/>
                    <circle cx="376.32" cy="268.61" r="2" style="fill: #ffc727;"/>
                    <path d="m384.9,268.61c0,1.1-.89,2-2,2s-2-.89-2-2,.89-2,2-2,2,.89,2,2Z" style="fill: #ffc727;"/>
                    <circle cx="389.48" cy="268.61" r="2" style="fill: #ffc727;"/>
                    <path d="m398.05,268.61c0,1.1-.89,2-2,2s-2-.89-2-2,.89-2,2-2,2,.89,2,2Z" style="fill: #ffc727;"/>
                    <path d="m404.63,268.61c0,1.1-.89,2-2,2s-2-.89-2-2,.89-2,2-2,2,.89,2,2Z" style="fill: #ffc727;"/>
                </g>
                <rect x="370.54" y="254.64" width="1.15" height="15.96" style="fill: #263238;"/>
            </g>
            <g>
                <rect x="304.51" y="221.98" width="103.21" height="23.84" style="fill: #37474f;"/>
                <g>
                    <rect x="308.86" y="225.92" width="58.75" height="2.01" style="fill: #455a64;"/>
                    <rect x="308.86" y="229.4" width="58.75" height="2.01" style="fill: #455a64;"/>
                    <rect x="308.86" y="232.89" width="58.75" height="2.01" style="fill: #455a64;"/>
                    <rect x="308.86" y="236.38" width="58.75" height="2.01" style="fill: #455a64;"/>
                    <rect x="308.86" y="239.87" width="58.75" height="2.01" style="fill: #455a64;"/>
                </g>
                <g>
                    <circle cx="376.32" cy="227.91" r="2" style="fill: #ffc727;"/>
                    <path d="m384.9,227.91c0,1.1-.89,2-2,2s-2-.89-2-2,.89-2,2-2,2,.89,2,2Z" style="fill: #ffc727;"/>
                    <circle cx="389.48" cy="227.91" r="2" style="fill: #ffc727;"/>
                    <path d="m398.05,227.91c0,1.1-.89,2-2,2s-2-.89-2-2,.89-2,2-2,2,.89,2,2Z" style="fill: #ffc727;"/>
                    <path d="m404.63,227.91c0,1.1-.89,2-2,2s-2-.89-2-2,.89-2,2-2,2,.89,2,2Z" style="fill: #ffc727;"/>
                    <circle cx="376.32" cy="233.9" r="2" style="fill: #ffc727;"/>
                    <path d="m384.9,233.9c0,1.1-.89,2-2,2s-2-.89-2-2,.89-2,2-2,2,.89,2,2Z" style="fill: #ffc727;"/>
                    <circle cx="389.48" cy="233.9" r="2" style="fill: #ffc727;"/>
                    <path d="m398.05,233.9c0,1.1-.89,2-2,2s-2-.89-2-2,.89-2,2-2,2,.89,2,2Z" style="fill: #ffc727;"/>
                    <path d="m404.63,233.9c0,1.1-.89,2-2,2s-2-.89-2-2,.89-2,2-2,2,.89,2,2Z" style="fill: #ffc727;"/>
                    <path d="m378.32,239.88c0,1.1-.89,2-2,2s-2-.89-2-2,.89-2,2-2,2,.89,2,2Z" style="fill: #ffc727;"/>
                    <path d="m384.9,239.88c0,1.1-.89,2-2,2s-2-.89-2-2,.89-2,2-2,2,.89,2,2Z" style="fill: #ffc727;"/>
                    <path d="m391.47,239.88c0,1.1-.89,2-2,2s-2-.89-2-2,.89-2,2-2,2,.89,2,2Z" style="fill: #ffc727;"/>
                    <path d="m398.05,239.88c0,1.1-.89,2-2,2s-2-.89-2-2,.89-2,2-2,2,.89,2,2Z" style="fill: #ffc727;"/>
                    <path d="m404.63,239.88c0,1.1-.89,2-2,2s-2-.89-2-2,.89-2,2-2,2,.89,2,2Z" style="fill: #ffc727;"/>
                </g>
                <rect x="370.54" y="225.92" width="1.15" height="15.96" style="fill: #263238;"/>
            </g>
            <g>
                <rect x="304.51" y="193.25" width="103.21" height="23.84" style="fill: #37474f;"/>
                <g>
                    <rect x="308.86" y="197.19" width="58.75" height="2.01" style="fill: #455a64;"/>
                    <rect x="308.86" y="200.68" width="58.75" height="2.01" style="fill: #455a64;"/>
                    <rect x="308.86" y="204.16" width="58.75" height="2.01" style="fill: #455a64;"/>
                    <rect x="308.86" y="207.65" width="58.75" height="2.01" style="fill: #455a64;"/>
                    <rect x="308.86" y="211.14" width="58.75" height="2.01" style="fill: #455a64;"/>
                </g>
                <g>
                    <path d="m378.32,199.18c0,1.1-.89,2-2,2s-2-.89-2-2,.89-2,2-2,2,.89,2,2Z" style="fill: #ffc727;"/>
                    <path d="m384.9,199.18c0,1.1-.89,2-2,2s-2-.89-2-2,.89-2,2-2,2,.89,2,2Z" style="fill: #ffc727;"/>
                    <path d="m391.47,199.18c0,1.1-.89,2-2,2s-2-.89-2-2,.89-2,2-2,2,.89,2,2Z" style="fill: #ffc727;"/>
                    <path d="m398.05,199.18c0,1.1-.89,2-2,2s-2-.89-2-2,.89-2,2-2,2,.89,2,2Z" style="fill: #ffc727;"/>
                    <path d="m404.63,199.18c0,1.1-.89,2-2,2s-2-.89-2-2,.89-2,2-2,2,.89,2,2Z" style="fill: #ffc727;"/>
                    <path d="m378.32,205.17c0,1.1-.89,2-2,2s-2-.89-2-2,.89-2,2-2,2,.89,2,2Z" style="fill: #ffc727;"/>
                    <path d="m384.9,205.17c0,1.1-.89,2-2,2s-2-.89-2-2,.89-2,2-2,2,.89,2,2Z" style="fill: #ffc727;"/>
                    <path d="m391.47,205.17c0,1.1-.89,2-2,2s-2-.89-2-2,.89-2,2-2,2,.89,2,2Z" style="fill: #ffc727;"/>
                    <path d="m398.05,205.17c0,1.1-.89,2-2,2s-2-.89-2-2,.89-2,2-2,2,.89,2,2Z" style="fill: #ffc727;"/>
                    <path d="m404.63,205.17c0,1.1-.89,2-2,2s-2-.89-2-2,.89-2,2-2,2,.89,2,2Z" style="fill: #ffc727;"/>
                    <path d="m378.32,211.15c0,1.1-.89,2-2,2s-2-.89-2-2,.89-2,2-2,2,.89,2,2Z" style="fill: #ffc727;"/>
                    <path d="m384.9,211.15c0,1.1-.89,2-2,2s-2-.89-2-2,.89-2,2-2,2,.89,2,2Z" style="fill: #ffc727;"/>
                    <path d="m391.47,211.15c0,1.1-.89,2-2,2s-2-.89-2-2,.89-2,2-2,2,.89,2,2Z" style="fill: #ffc727;"/>
                    <path d="m398.05,211.15c0,1.1-.89,2-2,2s-2-.89-2-2,.89-2,2-2,2,.89,2,2Z" style="fill: #ffc727;"/>
                    <path d="m404.63,211.15c0,1.1-.89,2-2,2s-2-.89-2-2,.89-2,2-2,2,.89,2,2Z" style="fill: #ffc727;"/>
                </g>
                <rect x="370.54" y="197.19" width="1.15" height="15.96" style="fill: #263238;"/>
            </g>
            <g>
                <rect x="304.51" y="164.52" width="103.21" height="23.84" style="fill: #37474f;"/>
                <g>
                    <rect x="308.86" y="168.46" width="58.75" height="2.01" style="fill: #455a64;"/>
                    <rect x="308.86" y="171.95" width="58.75" height="2.01" style="fill: #455a64;"/>
                    <rect x="308.86" y="175.44" width="58.75" height="2.01" style="fill: #455a64;"/>
                    <rect x="308.86" y="178.92" width="58.75" height="2.01" style="fill: #455a64;"/>
                    <rect x="308.86" y="182.41" width="58.75" height="2.01" style="fill: #455a64;"/>
                </g>
                <g>
                    <path d="m378.32,170.46c0,1.1-.89,2-2,2s-2-.89-2-2,.89-2,2-2,2,.89,2,2Z" style="fill: #ffc727;"/>
                    <path d="m384.9,170.46c0,1.1-.89,2-2,2s-2-.89-2-2,.89-2,2-2,2,.89,2,2Z" style="fill: #ffc727;"/>
                    <path d="m391.47,170.46c0,1.1-.89,2-2,2s-2-.89-2-2,.89-2,2-2,2,.89,2,2Z" style="fill: #ffc727;"/>
                    <path d="m398.05,170.46c0,1.1-.89,2-2,2s-2-.89-2-2,.89-2,2-2,2,.89,2,2Z" style="fill: #ffc727;"/>
                    <path d="m404.63,170.46c0,1.1-.89,2-2,2s-2-.89-2-2,.89-2,2-2,2,.89,2,2Z" style="fill: #ffc727;"/>
                    <path d="m378.32,176.44c0,1.1-.89,2-2,2s-2-.89-2-2,.89-2,2-2,2,.89,2,2Z" style="fill: #ffc727;"/>
                    <path d="m384.9,176.44c0,1.1-.89,2-2,2s-2-.89-2-2,.89-2,2-2,2,.89,2,2Z" style="fill: #ffc727;"/>
                    <path d="m391.47,176.44c0,1.1-.89,2-2,2s-2-.89-2-2,.89-2,2-2,2,.89,2,2Z" style="fill: #ffc727;"/>
                    <path d="m398.05,176.44c0,1.1-.89,2-2,2s-2-.89-2-2,.89-2,2-2,2,.89,2,2Z" style="fill: #ffc727;"/>
                    <path d="m404.63,176.44c0,1.1-.89,2-2,2s-2-.89-2-2,.89-2,2-2,2,.89,2,2Z" style="fill: #ffc727;"/>
                    <path d="m378.32,182.43c0,1.1-.89,2-2,2s-2-.89-2-2,.89-2,2-2,2,.89,2,2Z" style="fill: #ffc727;"/>
                    <path d="m384.9,182.43c0,1.1-.89,2-2,2s-2-.89-2-2,.89-2,2-2,2,.89,2,2Z" style="fill: #ffc727;"/>
                    <path d="m391.47,182.43c0,1.1-.89,2-2,2s-2-.89-2-2,.89-2,2-2,2,.89,2,2Z" style="fill: #ffc727;"/>
                    <path d="m398.05,182.43c0,1.1-.89,2-2,2s-2-.89-2-2,.89-2,2-2,2,.89,2,2Z" style="fill: #ffc727;"/>
                    <path d="m404.63,182.43c0,1.1-.89,2-2,2s-2-.89-2-2,.89-2,2-2,2,.89,2,2Z" style="fill: #ffc727;"/>
                </g>
                <rect x="370.54" y="168.46" width="1.15" height="15.96" style="fill: #263238;"/>
            </g>
            <g>
                <rect x="304.51" y="135.8" width="103.21" height="23.84" style="fill: #37474f;"/>
                <g>
                    <rect x="308.86" y="139.73" width="58.75" height="2.01" style="fill: #455a64;"/>
                    <rect x="308.86" y="143.22" width="58.75" height="2.01" style="fill: #455a64;"/>
                    <rect x="308.86" y="146.71" width="58.75" height="2.01" style="fill: #455a64;"/>
                    <rect x="308.86" y="150.19" width="58.75" height="2.01" style="fill: #455a64;"/>
                    <rect x="308.86" y="153.68" width="58.75" height="2.01" style="fill: #455a64;"/>
                </g>
                <g>
                    <path d="m378.32,141.73c0,1.1-.89,2-2,2s-2-.89-2-2,.89-2,2-2,2,.89,2,2Z" style="fill: #ffc727;"/>
                    <path d="m384.9,141.73c0,1.1-.89,2-2,2s-2-.89-2-2,.89-2,2-2,2,.89,2,2Z" style="fill: #ffc727;"/>
                    <path d="m391.47,141.73c0,1.1-.89,2-2,2s-2-.89-2-2,.89-2,2-2,2,.89,2,2Z" style="fill: #ffc727;"/>
                    <path d="m398.05,141.73c0,1.1-.89,2-2,2s-2-.89-2-2,.89-2,2-2,2,.89,2,2Z" style="fill: #ffc727;"/>
                    <path d="m404.63,141.73c0,1.1-.89,2-2,2s-2-.89-2-2,.89-2,2-2,2,.89,2,2Z" style="fill: #ffc727;"/>
                    <circle cx="376.32" cy="147.71" r="2" style="fill: #ffc727;"/>
                    <path d="m384.9,147.71c0,1.1-.89,2-2,2s-2-.89-2-2,.89-2,2-2,2,.89,2,2Z" style="fill: #ffc727;"/>
                    <circle cx="389.48" cy="147.71" r="2" style="fill: #ffc727;"/>
                    <path d="m398.05,147.71c0,1.1-.89,2-2,2s-2-.89-2-2,.89-2,2-2,2,.89,2,2Z" style="fill: #ffc727;"/>
                    <path d="m404.63,147.71c0,1.1-.89,2-2,2s-2-.89-2-2,.89-2,2-2,2,.89,2,2Z" style="fill: #ffc727;"/>
                    <path d="m378.32,153.7c0,1.1-.89,2-2,2s-2-.89-2-2,.89-2,2-2,2,.89,2,2Z" style="fill: #ffc727;"/>
                    <path d="m384.9,153.7c0,1.1-.89,2-2,2s-2-.89-2-2,.89-2,2-2,2,.89,2,2Z" style="fill: #ffc727;"/>
                    <path d="m391.47,153.7c0,1.1-.89,2-2,2s-2-.89-2-2,.89-2,2-2,2,.89,2,2Z" style="fill: #ffc727;"/>
                    <path d="m398.05,153.7c0,1.1-.89,2-2,2s-2-.89-2-2,.89-2,2-2,2,.89,2,2Z" style="fill: #ffc727;"/>
                    <path d="m404.63,153.7c0,1.1-.89,2-2,2s-2-.89-2-2,.89-2,2-2,2,.89,2,2Z" style="fill: #ffc727;"/>
                </g>
                <rect x="370.54" y="139.73" width="1.15" height="15.96" style="fill: #263238;"/>
            </g>
            <rect x="254.84" y="115.96" width="136.05" height="7.56" style="fill: #37474f;"/>
            <rect x="241.01" y="331.16" width="15.19" height="15.19" style="fill: #263238;"/>
        </g>
    </g>
    <g id="d" data-name="Texts">
        <g>
            <path
                d="m45.87,80.37v22.21c1.55-2.2,3.72-3.91,6.54-5.12,1.49-.61,3.23-.91,5.22-.91,6.84,0,11.89,2.39,15.15,7.18,2.82,4.13,4.22,9.96,4.22,17.5v22.29c0,7.65-2.42,13.93-7.27,18.82-4.62,4.73-10.46,7.1-17.5,7.1s-12.5-2.48-17.01-7.43c-4.35-4.73-6.52-10.51-6.52-17.34v-2.48l14.94-1.16.33,3.55c.38,4.13,2.06,6.88,5.04,8.26.88.44,1.82.66,2.81.66,6.38,0,9.58-3.33,9.58-9.99v-25.35c0-3.03-1.11-5.53-3.32-7.51-1.05-.94-2.52-1.4-4.4-1.4-2.77,0-4.81,1.07-6.14,3.22-1.11,1.87-1.66,3.85-1.66,5.95v2.81h-15.61v-56.56h45.66v15.69h-30.05Z"
                style="fill: #ffc727;"/>
            <path
                d="m139.58,144.69c0,6.88-2.42,12.72-7.27,17.5-4.84,4.79-10.65,7.18-17.42,7.18s-12.73-2.41-17.55-7.22c-4.82-4.82-7.22-10.64-7.22-17.46v-56.48c0-6.88,2.42-12.73,7.27-17.54,4.84-4.82,10.68-7.22,17.5-7.22s12.71,2.42,17.5,7.27c4.79,4.84,7.18,10.68,7.18,17.5v56.48Zm-16.18-56.81c0-2.48-.88-4.6-2.64-6.36-1.76-1.76-3.88-2.64-6.36-2.64s-4.58.88-6.32,2.64c-1.73,1.76-2.6,3.88-2.6,6.36v56.56c0,2.48.87,4.6,2.6,6.36,1.73,1.76,3.84,2.64,6.32,2.64s4.6-.88,6.36-2.64c1.76-1.76,2.64-3.88,2.64-6.36v-56.56Z"
                style="fill: #ffc727;"/>
            <path
                d="m202.5,144.69c0,6.88-2.42,12.72-7.27,17.5-4.84,4.79-10.65,7.18-17.42,7.18s-12.73-2.41-17.55-7.22c-4.82-4.82-7.22-10.64-7.22-17.46v-56.48c0-6.88,2.42-12.73,7.27-17.54,4.84-4.82,10.68-7.22,17.5-7.22s12.71,2.42,17.5,7.27c4.79,4.84,7.18,10.68,7.18,17.5v56.48Zm-16.18-56.81c0-2.48-.88-4.6-2.64-6.36-1.76-1.76-3.88-2.64-6.36-2.64s-4.58.88-6.32,2.64c-1.73,1.76-2.6,3.88-2.6,6.36v56.56c0,2.48.87,4.6,2.6,6.36,1.73,1.76,3.84,2.64,6.32,2.64s4.6-.88,6.36-2.64,2.64-3.88,2.64-6.36v-56.56Z"
                style="fill: #ffc727;"/>
        </g>
    </g>
    <g id="e" data-name="Wall plug">
        <g>
            <rect x="6.61" y="300.83" width="26.56" height="26.56" style="fill: #37474f;"/>
            <circle cx="19.88" cy="314.11" r="8.87" style="fill: #455a64;"/>
            <rect x="16.26" y="310.53" width="2" height="7.32" style="fill: #263238;"/>
            <rect x="21.82" y="310.53" width="2" height="7.32" style="fill: #263238;"/>
        </g>
    </g>
    <g id="f" data-name="Floor">
        <polygon
            points="0 368.69 53.29 368.45 106.57 368.36 213.15 368.19 319.72 368.36 373.01 368.44 426.29 368.69 373.01 368.93 319.72 369.02 213.15 369.19 106.57 369.02 53.29 368.93 0 368.69"
            style="fill: #263238;"/>
    </g>
    <g id="g" data-name="Dog">
        <g>
            <g>
                <g>
                    <path
                        d="m91.23,343.62c.97,2.11-2.85,17.31-4.04,20.42-1.2,3.12-5.39,20.53-7.43,21.28-2.04.75-11.93.54-13.33,0-1.4-.54,0-3.51,1.61-4.55,1.61-1.04,3.53-2.64,3.53-2.64,0,0-2.89-26.89-2.35-29.9.54-3.01,19.4-10.32,22.01-4.62Z"
                        style="fill: #ffc727;"/>
                    <path
                        d="m91.23,343.62c.97,2.11-2.85,17.31-4.04,20.42-1.2,3.12-5.39,20.53-7.43,21.28-2.04.75-11.93.54-13.33,0-1.4-.54,0-3.51,1.61-4.55,1.61-1.04,3.53-2.64,3.53-2.64,0,0-2.89-26.89-2.35-29.9.54-3.01,19.4-10.32,22.01-4.62Z"
                        style="opacity: .1;"/>
                    <path
                        d="m70.55,384.16c.11-.53.33-1.05.65-1.49.32-.44.7-.83,1.14-1.15.41-.3.91-.6,1.42-.69.07-.01.12.07.06.12-.18.17-.38.3-.55.47-.17.17-.35.35-.52.53-.33.35-.6.74-.85,1.16-.25.42-.48.84-.69,1.27-.21.44-.34.91-.51,1.37-.03.09-.17.1-.19,0-.12-.52-.06-1.06.05-1.58Z"
                        style="opacity: .1;"/>
                    <path
                        d="m67.66,382.57c.52-.97,1.43-1.66,2.42-2.11.06-.03.13.05.07.1-.73.63-1.45,1.31-1.91,2.17-.46.85-.71,1.91-.38,2.85.02.04-.05.06-.07.03-.63-.9-.64-2.09-.12-3.04Z"
                        style="opacity: .1;"/>
                </g>
                <path
                    d="m70.09,363.07l13.59,12.86c1.5-4.93,2.9-10.29,3.51-11.88,1.2-3.12,5.01-18.31,4.05-20.43-2.61-5.69-21.48,1.62-22.01,4.63-.25,1.42.25,8.12.86,14.82Z"
                    style="opacity: .1;"/>
            </g>
            <g>
                <g>
                    <path
                        d="m142.55,358.82c.55.52,5.9-4.54,6.72-6.91.82-2.37-2.6-9.06-1.97-10.2s3.55-2.05,5.06-.3c1.51,1.75,5.39,11.34,4.58,15.44-.81,4.1-9.06,13.26-9.92,13.21-.86-.05-4.47-11.25-4.47-11.25Z"
                        style="fill: #ffc727;"/>
                    <path
                        d="m142.55,358.82s3.61,11.2,4.47,11.24c.63.03,5.21-4.85,7.94-9.08l-7.49-6.32c-1.88,2.23-4.54,4.51-4.92,4.16Z"
                        style="opacity: .1;"/>
                </g>
                <path
                    d="m112.34,312.56h-44.4s-3.3,29.24-2.94,33.11c.36,3.87,19.87,32.54,25.93,36.24,6.14,3.75,40.83,3.88,49.29,2.02,6.58-1.45,12.07-9.84,9.34-22.78-1.19-5.65-16.61-19.13-18.76-21.71-2.15-2.58-18.46-26.87-18.46-26.87Z"
                    style="fill: #c7c7c7;"/>
                <path
                    d="m65,345.67c.36,3.87,19.87,32.54,25.93,36.24,6.14,3.75,40.82,3.88,49.29,2.02,6.57-1.45,12.07-9.85,9.33-22.79-1.19-5.65-16.6-19.13-18.75-21.71-1.32-1.58-7.94-11.3-12.88-18.6-3.13-4.62-5.58-8.27-5.58-8.27h-44.4s-.83,7.34-1.61,15.15c-.78,7.78-1.51,16.03-1.33,17.96Z"
                    style="fill: #ffc727;"/>
                <path
                    d="m66.33,327.71c23.86,7.36,45.08-3.11,51.59-6.88-3.13-4.62-5.58-8.27-5.58-8.27h-44.4s-.83,7.34-1.61,15.15Z"
                    style="opacity: .1;"/>
            </g>
            <g>
                <path
                    d="m141.06,359.73s-12.22-7.67-20.79-6.28c-8.57,1.39-11.59,18.98-7.49,28.89,0,0-7.82,2.32-7.82,6.1,0,2.15,4.47,2.84,10.91,2.68,6.45-.15,19.26-.28,19.54-1.9.28-1.62-.84-3.85-.84-3.85,0,0,11.57-1.3,13.84-8.97s-5.42-15.37-7.35-16.67Z"
                    style="fill: #ffc727;"/>
                <g>
                    <path
                        d="m124.37,383.2c3.24,1.39,6.78,2.06,10.29,2.29.07,0,.09.12.01.12-3.63.41-7.19-.5-10.34-2.32-.05-.03-.01-.11.04-.09Z"
                        style="opacity: .1;"/>
                    <path
                        d="m109.99,391.17c.32-1.46,1.46-2.62,2.66-3.44.7-.48,1.46-.86,2.26-1.14.92-.31,1.86-.48,2.78-.77.08-.02.13.09.05.11-.79.27-1.56.67-2.3,1.06-.74.39-1.47.82-2.16,1.29-1.2.81-2.11,1.87-2.99,3-.09.12-.34.06-.3-.12Z"
                        style="opacity: .1;"/>
                    <path
                        d="m111.57,385.1c.08-.01.11.09.03.12-2.36.87-4.25,2.95-5.26,5.22-.04.1-.22.1-.2-.03.32-2.81,2.7-4.91,5.44-5.31Z"
                        style="opacity: .1;"/>
                    <path
                        d="m107.76,384.55s.02.06.05.05c.2-.04,2.39-1.51,4.81-2.21.2.35.41.7.64,1.04.04.07.15,0,.11-.06-1.52-3.05-2.13-6.49-2.14-9.88-.01-1.8.13-3.62.32-5.41-.01-.01-.01-.02,0-.03.46-3.16,1.37-6.25,2.9-9.02.93-1.72,2.13-3.38,3.77-4.34,1.64-.95,3.69-1.1,5.65-1.02,1.99.1,3.97.53,5.9,1.09,1.94.53,3.85,1.23,5.72,2.02-3.57-1.92-7.44-3.43-11.56-3.87-2.05-.2-4.24-.06-6.16.99-1.9,1.09-3.19,2.85-4.2,4.64-1.94,3.68-2.9,7.78-3.07,11.88-.02.47-.04.95-.04,1.42v.02c-.03.63-.04,1.25-.02,1.88.08,2.96.68,5.93,2.11,8.53-2.17.44-3.43,1.06-4.79,2.28Z"
                        style="opacity: .1;"/>
                </g>
            </g>
            <g>
                <path
                    d="m105.58,347.38c.97,2.11-2.85,17.31-4.04,20.42-1.2,3.12-5.39,20.53-7.43,21.28-2.04.75-11.93.54-13.33,0-1.4-.54,0-3.51,1.61-4.55,1.61-1.04,3.53-2.64,3.53-2.64,0,0-2.89-26.89-2.35-29.9.54-3.01,19.4-10.32,22.01-4.62Z"
                    style="fill: #ffc727;"/>
                <g>
                    <path
                        d="m98.91,376.24c.91-2.74,2.1-5.39,3.01-8.13.04-.11.21-.06.17.05-.7,2.2-1.24,4.46-1.89,6.68.09-.15.18-.3.28-.45.57-.88,1.28-1.75,1.57-2.77.03-.11.21-.06.17.05-.13.48-.36.9-.59,1.34-.26.49-.53.98-.79,1.47-.34.64-.72,1.26-1.1,1.87-.01.04-.03.09-.04.13-.91,2.75-1.82,5.49-3.03,8.12-.06.14-.27.09-.24-.07.63-2.82,1.56-5.54,2.47-8.29Z"
                        style="opacity: .1;"/>
                    <path
                        d="m83.19,356.3c0-.06.11-.07.12-.01.29,2.04.41,4.1.62,6.15.21,2.13.47,4.25.71,6.38.47,4.23,1.17,8.45,1.51,12.69.01.18-.31.2-.35.03-1.12-4.09-1.61-8.3-2.05-12.48-.22-2.08-.35-4.16-.45-6.24-.1-2.16-.23-4.35-.1-6.51Z"
                        style="opacity: .1;"/>
                    <path
                        d="m84.41,387.71c.11-.53.33-1.05.65-1.49.32-.44.7-.83,1.14-1.15.41-.3.91-.6,1.42-.69.07-.01.12.07.06.12-.18.17-.38.3-.55.47-.17.17-.35.35-.52.53-.33.35-.6.74-.85,1.16-.25.42-.48.84-.69,1.27-.21.44-.34.91-.51,1.37-.03.09-.17.1-.19,0-.12-.52-.06-1.06.05-1.58Z"
                        style="opacity: .1;"/>
                    <path
                        d="m81.52,386.12c.52-.97,1.43-1.66,2.42-2.11.06-.03.13.05.07.1-.73.63-1.45,1.31-1.91,2.17-.46.85-.71,1.91-.38,2.85.02.04-.05.06-.07.03-.63-.9-.64-2.09-.12-3.04Z"
                        style="opacity: .1;"/>
                </g>
            </g>
            <g>
                <g>
                    <path
                        d="m84.92,271.9c.48-1.75-3.9-7.96-5.56-10.04-1.67-2.09-10.86-5.22-13.8-3.61-1.15.63-3.29,5.05-6.18,8.88-4.47,5.94-9.7,12.16-7.8,13.84,4.61,4.07,15.11-2.35,18.52-4.5,3.41-2.16,6.53-4.78,7.36-4.69,1.1.12,3.4,1.86,4.32,1.96,2.19.24,3.15-1.84,3.15-1.84Z"
                        style="fill: #ffc727;"/>
                    <path
                        d="m84.92,271.9c.48-1.75-3.9-7.96-5.56-10.04-1.67-2.09-10.86-5.22-13.8-3.61-1.15.63-3.29,5.05-6.18,8.88-4.47,5.94-9.7,12.16-7.8,13.84,4.61,4.07,15.11-2.35,18.52-4.5,3.41-2.16,6.53-4.78,7.36-4.69,1.1.12,3.4,1.86,4.32,1.96,2.19.24,3.15-1.84,3.15-1.84Z"
                        style="opacity: .1;"/>
                </g>
                <path
                    d="m106.1,265.69c10.73,6.41,15.49,23.48,15.78,26.21.24,2.23,5.35,10.1,4.44,18.57-.59,5.45-10.37,12.68-18.33,12.6-1.47-.01-13.86,4.48-24.32,3.76s-18.4-8.15-18.7-8.78c-.31-.63-8.79-1.86-9.32-10.6-.85-13.96,13.4-37.76,17.48-41.01,6.75-5.38,25.69-5.11,32.98-.75Z"
                    style="fill: #ffc727;"/>
                <g>
                    <path
                        d="m101.05,273.05c-.21-1.9,5.36-7.61,7.44-9.5s12.14-3.61,14.92-1.45c1.09.85,2.58,5.78,4.94,10.25,3.65,6.9,8.05,14.23,5.8,15.66-5.46,3.46-15.29-4.95-18.47-7.75-3.18-2.8-5.98-6.04-6.85-6.08-1.16-.06-3.84,1.36-4.81,1.31-2.31-.11-2.96-2.43-2.96-2.43Z"
                        style="fill: #ffc727;"/>
                    <path
                        d="m101.05,273.05c-.21-1.9,5.36-7.61,7.44-9.5s12.14-3.61,14.92-1.45c1.09.85,2.58,5.78,4.94,10.25,3.65,6.9,8.05,14.23,5.8,15.66-5.46,3.46-15.29-4.95-18.47-7.75-3.18-2.8-5.98-6.04-6.85-6.08-1.16-.06-3.84,1.36-4.81,1.31-2.31-.11-2.96-2.43-2.96-2.43Z"
                        style="opacity: .1;"/>
                </g>
                <path
                    d="m81.45,297.02c6.58.06,9.58,7.11,10.37,8.94.79,1.84,4.85,6.04,4.96,10.43.11,4.39-8.23,9.29-17.04,7.75-8.76-1.54-13.41-6.48-13.36-10.94.04-3.59,3.42-6.7,3.8-7.65.37-.95,5.27-8.58,11.27-8.53Z"
                    style="opacity: .1;"/>
                <path
                    d="m97.63,309.41c.88,1,1.62,2.11,2.21,3.31.6,1.2,1.06,2.47,1.29,3.82.21,1.34.2,2.81-.43,4.1-.3.64-.75,1.2-1.28,1.65-.55.42-1.16.73-1.79.92,1.11-.74,1.97-1.71,2.35-2.87.4-1.15.37-2.41.16-3.64-.19-1.24-.59-2.46-1.02-3.67-.45-1.21-.95-2.41-1.49-3.62Z"
                    style="opacity: .1;"/>
                <path
                    d="m67.48,306.78c-.57.71-1.11,1.4-1.61,2.1-.48.71-.96,1.42-1.27,2.18-.34.75-.53,1.54-.58,2.36-.03.83.19,1.64.47,2.51-.62-.65-1.13-1.5-1.24-2.47-.12-.96.07-1.94.44-2.81.38-.87.94-1.63,1.59-2.28.65-.65,1.37-1.22,2.2-1.6Z"
                    style="opacity: .1;"/>
                <g>
                    <path
                        d="m170.29,400.95c-10.78,0-22.66-.18-34.61-.41-6.16-.11-11.03-.2-14.06-.2-15.52,0-19.99-19.96-24.31-39.25-.6-2.69-1.21-5.38-1.84-8.03-1.23-5.16-2.25-10.38-3.24-15.42-3.04-15.61-5.68-29.08-12.55-29.82-9.09-.97-17.18,12.62-20.13,33.83l-1.98-.28c3.11-22.36,12.08-36.66,22.32-35.55,8.34.89,11.1,15.04,14.3,31.43.98,5.03,2,10.22,3.22,15.34.63,2.65,1.24,5.36,1.84,8.05,4.34,19.38,8.44,37.69,22.36,37.69,3.06,0,7.93.09,14.1.2,13.52.25,32.03.6,47.7.29,25.42-.5,28.43-2.5,28.74-3.11-.01-4.16-26.84-9.17-36.94-11.05-10.21-1.91-10.61-1.98-10.49-3.23.1-1.12,1.35-1.12,3.24-1.12h41.94c13.16,0,17.39-18.93,19.93-30.23.73-3.24,1.3-5.81,1.93-7.13,2.94-6.12,10.38-5.23,10.69-5.19l-.26,1.98c-.26-.03-6.32-.74-8.63,4.07-.54,1.12-1.12,3.7-1.79,6.7-2.66,11.89-7.12,31.8-21.88,31.8h-36.42c.68.13,1.38.26,2.09.39,24.42,4.56,38.56,8.16,38.56,13.09,0,.36-.11.9-.65,1.43-2.98,2.92-20.65,3.72-43.21,3.72Z"
                        style="fill: #263238;"/>
                    <g>
                        <rect x="52.41" y="339.82" width="12.28" height="7.37"
                              transform="translate(20.65 -2.89) rotate(3.43)" style="fill: #455a64;"/>
                        <rect x="55.01" y="337.5" width="7.66" height="2.34"
                              transform="translate(20.36 -2.91) rotate(3.43)" style="fill: #37474f;"/>
                        <rect x="54.65" y="347.01" width="1.45" height="5.62"
                              transform="translate(21.02 -2.69) rotate(3.43)" style="fill: #ffc727;"/>
                        <rect x="60.2" y="347.34" width="1.44" height="5.62"
                              transform="translate(21.05 -3.02) rotate(3.43)" style="fill: #ffc727;"/>
                    </g>
                    <g>
                        <rect x="242.74" y="336.08" width="12.28" height="5.37"
                              transform="translate(-89.88 587.64) rotate(-90)" style="fill: #455a64;"/>
                        <rect x="240.2" y="336.59" width="7.66" height="4.34"
                              transform="translate(-94.73 582.79) rotate(-90)" style="fill: #37474f;"/>
                    </g>
                </g>
                <g>
                    <g>
                        <path
                            d="m73.1,307.7s2.61,3.02,3.62,2.38c1.01-.64,3.54-6.59,3.54-6.59,0,0,.6,7.57,2.56,7.77,1.95.21,5.29-2.78,5.29-2.78l-7.89-5.47-7.12,4.68Z"
                            style="fill: #ffc727;"/>
                        <path
                            d="m73.1,307.7s2.61,3.02,3.62,2.38c1.01-.64,3.54-6.59,3.54-6.59,0,0,.6,7.57,2.56,7.77,1.95.21,5.29-2.78,5.29-2.78l-7.89-5.47-7.12,4.68Z"
                            style="opacity: .1;"/>
                    </g>
                    <path
                        d="m111.8,298.31c.77-2.4,1.05-4.97.81-7.54-.11-1.29-.42-2.58-.91-3.83-.25-.62-.57-1.22-.96-1.79-.38-.57-.83-1.11-1.34-1.58-.25-.24-.53-.45-.82-.66-.29-.2-.58-.36-.88-.53l-.45-.25-.47-.19c-.32-.12-.62-.28-.96-.36-1.31-.39-2.67-.5-3.98-.38-2.63.23-5.08,1.25-7.08,2.79,2.36-.84,4.78-1.37,7.13-1.31,1.17.06,2.32.19,3.37.6.27.08.51.23.77.33l.38.17.36.22c.24.15.49.28.71.44.22.17.43.33.63.52.82.72,1.46,1.66,1.94,2.7.51,1.03.83,2.17,1.1,3.33.49,2.35.65,4.81.65,7.32Z"
                        style="opacity: .1;"/>
                    <path
                        d="m63.02,293.2c.16-2.14.46-4.22,1.05-6.15.6-1.92,1.56-3.68,3.05-4.76.36-.28.77-.49,1.18-.69.39-.17.81-.29,1.26-.35.91-.13,1.9-.07,2.89.06,2,.31,4.01.91,6.06,1.57-.82-.71-1.74-1.29-2.69-1.81-.48-.25-.97-.49-1.48-.7-.51-.2-1.03-.39-1.57-.54-1.07-.31-2.22-.48-3.42-.38-.6.06-1.21.19-1.8.44-.55.25-1.08.53-1.56.91-.97.72-1.73,1.69-2.26,2.71-.54,1.03-.87,2.13-1.05,3.23-.36,2.19-.25,4.41.34,6.48Z"
                        style="opacity: .1;"/>
                    <g>
                        <path
                            d="m95.51,295.17c.03-.11.25.15.24.28-.24,3.01.05,6.5,3,7.64.09.04.07.19-.04.17-3.63-.63-3.96-5.26-3.21-8.08Z"
                            style="fill: #263238;"/>
                        <path d="m98.6,292.14c5.34-.14,5.33,9.61.39,9.74-4.87.12-4.86-9.63-.39-9.74Z"
                              style="fill: #263238;"/>
                    </g>
                    <g>
                        <path
                            d="m74.88,292.8c-.01-.12-.27.12-.28.24-.19,3.02-.95,6.43-4.03,7.14-.1.02-.1.17.01.17,3.68-.12,4.66-4.66,4.3-7.55Z"
                            style="fill: #263238;"/>
                        <path d="m72.24,289.38c-5.27-.88-6.62,8.78-1.74,9.59,4.8.8,6.15-8.86,1.74-9.59Z"
                              style="fill: #263238;"/>
                    </g>
                    <path
                        d="m80.06,303.22c.95.31,7.53-1.78,7.03-3.77-.54-2.16-9.81-2.67-10.97-1.27-1.16,1.4,2.95,4.72,3.94,5.04Z"
                        style="fill: #263238;"/>
                    <path
                        d="m88.28,308.38c-1.06.77-2.15,1.52-3.35,2.09-.59.28-1.25.53-1.82.52-.38.08-.7-.44-.91-.93-.44-1-.65-2.1-.84-3.19-.2-1.09-.31-2.2-.42-3.3l-.31-3.04-.91,2.95c-.28.91-.61,1.82-.94,2.72-.35.9-.71,1.8-1.18,2.64-.12.21-.25.41-.39.6-.14.19-.3.38-.46.48-.11.09-.32.09-.56.06-.23-.06-.48-.16-.71-.3-.93-.55-1.68-1.34-2.38-2.13.49.88,1.07,1.74,2.01,2.47.23.18.53.34.87.45.19.04.37.1.59.08.19.01.47-.06.64-.15.34-.18.54-.39.74-.6.19-.21.35-.43.5-.65.6-.87,1.03-1.78,1.43-2.69.41-.91.74-1.83,1.05-2.77l-1.22-.09c.07,1.14.25,2.25.46,3.38.1.56.25,1.12.42,1.68.18.56.36,1.12.66,1.67.16.28.32.55.59.82.14.13.3.27.54.38.12.06.25.1.41.11.16.03.24,0,.37,0,.91-.07,1.55-.43,2.16-.77,1.18-.72,2.14-1.58,2.98-2.5Z"
                        style="fill: #263238;"/>
                </g>
            </g>
        </g>
    </g>
    <g id="h" data-name="Lines">
        <g>
            <path
                d="m38.05,342.99c2-.16,3.98-.09,5.96.03,1.98.15,3.95.35,5.9.78-2,.16-3.98.09-5.96-.03-1.98-.15-3.95-.35-5.9-.78Z"
                style="fill: #263238;"/>
            <path
                d="m66.83,349.32c1.9.63,3.7,1.46,5.47,2.34,1.76.9,3.5,1.85,5.13,3.01-1.9-.63-3.7-1.46-5.47-2.34-1.76-.9-3.5-1.85-5.13-3.01Z"
                style="fill: #263238;"/>
            <path
                d="m44.4,363.07c.96-1.76,2.09-3.39,3.27-4.98,1.2-1.58,2.44-3.12,3.87-4.53-.95,1.76-2.09,3.39-3.27,4.98-1.2,1.58-2.45,3.12-3.87,4.53Z"
                style="fill: #263238;"/>
            <path
                d="m33.16,331.16c1.54.49,3.05,1.06,4.56,1.64,1.51.57,2.99,1.2,4.48,1.82,1.48.64,2.96,1.29,4.41,1.98,1.46.69,2.91,1.39,4.33,2.17-1.54-.49-3.05-1.06-4.56-1.64-1.51-.57-2.99-1.2-4.48-1.82-1.48-.64-2.96-1.29-4.41-1.98-1.46-.69-2.91-1.39-4.33-2.17Z"
                style="fill: #263238;"/>
            <path
                d="m68.28,340.03c1.4-.74,2.86-1.26,4.34-1.72,1.49-.45,2.99-.84,4.56-1.01-1.4.74-2.86,1.26-4.34,1.72-1.49.44-2.99.83-4.56,1.01Z"
                style="fill: #263238;"/>
            <path
                d="m53.9,334.97c-.82-1.3-1.56-2.63-2.3-3.97-.74-1.34-1.43-2.7-2.12-4.06-.67-1.37-1.34-2.74-1.96-4.14-.63-1.39-1.24-2.79-1.78-4.23.82,1.3,1.56,2.63,2.3,3.97.74,1.34,1.43,2.7,2.12,4.06.67,1.37,1.34,2.74,1.96,4.14.63,1.39,1.24,2.79,1.78,4.23Z"
                style="fill: #263238;"/>
            <path
                d="m74.15,366.6c-.89-1.02-1.72-2.09-2.53-3.17-.82-1.07-1.59-2.17-2.37-3.28-.76-1.11-1.52-2.23-2.22-3.38-.72-1.14-1.42-2.29-2.06-3.49.89,1.02,1.72,2.09,2.53,3.17.82,1.07,1.59,2.18,2.37,3.28.76,1.11,1.51,2.23,2.22,3.38.72,1.14,1.42,2.29,2.06,3.49Z"
                style="fill: #263238;"/>
        </g>
    </g>
    <g id="i" data-name="Device">
        <g>
            <polygon points="343.09 115.96 260.43 115.96 254.03 59.82 336.69 59.82 343.09 115.96"
                     style="fill: #a6a6a6;"/>
            <g>
                <polygon points="338.59 112.19 264.08 112.19 258.53 63.58 333.04 63.58 338.59 112.19"
                         style="fill: #fff;"/>
                <g>
                    <g>
                        <g>
                            <polygon points="292.57 89.16 291.38 90.58 279.66 80.46 280.85 79.04 292.57 89.16"
                                     style="fill: #ffc727;"/>
                            <polygon points="289.55 79.04 291.19 80.46 282.67 90.58 281.03 89.16 289.55 79.04"
                                     style="fill: #ffc727;"/>
                        </g>
                        <g>
                            <polygon points="317.63 89.16 316.44 90.58 304.72 80.46 305.91 79.04 317.63 89.16"
                                     style="fill: #ffc727;"/>
                            <polygon points="314.61 79.04 316.25 80.46 307.73 90.58 306.09 89.16 314.61 79.04"
                                     style="fill: #ffc727;"/>
                        </g>
                    </g>
                    <polygon points="278.16 98.89 277.84 96.89 323.27 96.89 323.59 98.89 278.16 98.89"
                             style="fill: #ffc727;"/>
                </g>
            </g>
            <rect x="261.01" y="112.19" width="106.34" height="3.77" style="fill: #a6a6a6;"/>
            <rect x="284.1" y="112.19" width="92.22" height="3.77" style="fill: #c7c7c7;"/>
            <polygon points="333.31 65.94 333.04 63.58 258.53 63.58 258.8 65.94 333.31 65.94" style="fill: #263238;"/>
            <g>
                <path d="m264.81,64.76c.04.32.3.59.59.59s.5-.26.46-.59c-.04-.32-.3-.59-.59-.59s-.5.26-.46.59Z"
                      style="fill: #c7c7c7;"/>
                <path d="m262.65,64.76c.04.32.3.59.59.59s.5-.26.46-.59c-.04-.32-.3-.59-.59-.59s-.5.26-.46.59Z"
                      style="fill: #fff;"/>
                <path d="m260.5,64.76c.04.32.3.59.59.59s.5-.26.46-.59c-.04-.32-.3-.59-.59-.59s-.5.26-.46.59Z"
                      style="fill: #ffc727;"/>
            </g>
        </g>
    </g>
</svg>
