<?xml version="1.0" encoding="UTF-8"?>
<svg id="a" data-name="Layer 1" xmlns="http://www.w3.org/2000/svg" viewBox="0 0 470.84 422.86">
    <path
        d="m455.68,341.73L277.31,32.77c-8.74-15.14-24.4-24.18-41.88-24.18-17.49,0-33.15,9.04-41.89,24.18L15.17,341.73c-8.75,15.14-8.75,33.22,0,48.36,8.74,15.14,24.4,24.18,41.88,24.18h356.75c17.48,0,33.14-9.04,41.88-24.18,8.74-15.14,8.74-33.22,0-48.36Zm-95.25-87.87c-2.18,3.29-6.39,5.33-10.98,5.33H120.42c-4.68,0-8.72-2.52-10.82-6.74-1.76-3.53-1.42-8.2.88-12.18L224.99,41.92h0c2.34-4.05,6.58-6.29,11.25-6,3.94.24,7.82,2.86,10.11,6.84l114.51,198.34c2.34,4.05,2.18,8.81-.43,12.74Z"
        style="fill: #fff2f2;"/>
    <path
        d="m413.8,422.86H57.05c-20.59,0-39.03-10.65-49.33-28.48-10.3-17.83-10.3-39.13,0-56.96L186.09,28.48C196.39,10.65,214.83,0,235.42,0c20.6,0,39.04,10.65,49.33,28.48l178.37,308.95c10.29,17.83,10.29,39.13,0,56.96-10.3,17.83-28.74,28.48-49.33,28.48ZM235.43,8.59c-17.49,0-33.15,9.04-41.89,24.18L15.17,341.73c-8.75,15.14-8.75,33.22,0,48.36,8.74,15.14,24.4,24.18,41.88,24.18h356.75c17.48,0,33.14-9.04,41.88-24.18,8.74-15.14,8.74-33.22,0-48.36L277.31,32.77c-8.74-15.14-24.4-24.18-41.88-24.18Z"
        style="fill: #ff0f19;"/>
    <path
        d="m349.45,267.78H120.42c-7.89,0-14.99-4.41-18.52-11.51-3.07-6.18-2.65-13.77,1.13-20.3L217.54,37.62c3.95-6.83,11.33-10.78,19.22-10.28,6.89.43,13.25,4.59,17.03,11.12l114.51,198.34c3.95,6.83,3.67,15.18-.71,21.79-3.81,5.75-10.6,9.18-18.14,9.18ZM224.99,41.92l-114.51,198.34c-2.3,3.98-2.63,8.64-.88,12.18,2.1,4.22,6.14,6.74,10.82,6.74h229.03c4.59,0,8.79-2.04,10.98-5.33,2.61-3.93,2.77-8.69.43-12.74L246.35,42.77c-2.29-3.98-6.17-6.6-10.11-6.84-4.66-.3-8.91,1.95-11.25,6h0Z"
        style="fill: #ff0f19;"/>
    <g>
        <path
            d="m235.52,76.1h0c13.81,0,24.52,12.07,22.88,25.78l-10.12,84.66c-.78,6.49-6.28,11.38-12.82,11.38h0c-6.55,0-12.06-4.9-12.83-11.4l-9.99-84.68c-1.62-13.7,9.09-25.74,22.89-25.74Z"
            style="fill: #ff0f19;"/>
        <path
            d="m222.46,239.06c-3.55-3.55-5.33-7.9-5.33-13.06s1.78-9.51,5.33-13.06c3.55-3.55,7.9-5.33,13.06-5.33s9.51,1.78,13.06,5.33c3.55,3.55,5.33,7.91,5.33,13.06s-1.77,9.51-5.33,13.06c-3.55,3.55-7.91,5.33-13.06,5.33s-9.51-1.78-13.06-5.33Z"
            style="fill: #ff0f19;"/>
    </g>
    <g>
        <path
            d="m79.76,370.35c.72-7.41,1.25-13.61,1.58-18.61s.66-11.64.99-19.92c.33-8.29.5-13.78.5-16.48l-.04-3.79c6.78.06,14.97.09,24.59.09,8.87,0,16.7-.03,23.47-.09l-.09,1.42c-.03.34-.1,1.59-.22,3.73l-.26,4.68c-.06,1-.09,2.02-.09,3.05-5.54-.23-10.2-.34-13.96-.34-4.14,0-6.93,0-8.38.02-1.45.01-3.71.08-6.79.19l-.52,9.91c3.39.09,7.34.13,11.85.13,1.61,0,5.89-.1,12.84-.3-.29,3.68-.56,8.06-.82,13.14-4.97-.06-8.78-.09-11.45-.09-3.96,0-8.4.1-13.3.3l-.51,10.47h4.95c1.46,0,4.49-.04,9.08-.13l8.91-.22c1.32-.03,3.53-.14,6.63-.34-.34,4.25-.63,8.65-.86,13.18-7.01-.06-14.69-.09-23.05-.09l-18.96.04-6.12.04Z"
            style="fill: #58595b;"/>
        <path
            d="m137.88,370.35c.55-5.05.98-9.61,1.3-13.66.32-4.05.59-8.75.82-14.09.23-5.34.4-10.98.52-16.91s.17-10.65.17-14.15c3.59.09,6.49.13,8.7.13s5.1-.06,8.4-.19c3.3-.13,6.52-.19,9.65-.19,3.67,0,6.95.14,9.82.43,2.15.2,4.11.62,5.88,1.25,1.77.63,3.25,1.4,4.46,2.3,1.21.91,2.21,1.92,3.02,3.04s1.43,2.43,1.87,3.94c.44,1.51.67,3.12.67,4.85,0,1.92-.24,3.73-.73,5.41-.49,1.68-1.26,3.26-2.3,4.74-1.05,1.48-2.37,2.76-3.96,3.83-1.59,1.08-3.83,2.18-6.7,3.3l2.24,5.47c.63,1.52,1.31,3.07,2.02,4.65l5.77,12.62c.26.55.72,1.62,1.38,3.23-4.74-.06-7.92-.09-9.56-.09-2.07,0-5.45.03-10.16.09-.46-1.49-1.29-4.26-2.5-8.31-.49-1.69-.91-3-1.25-3.92-.69-2.04-1.71-4.9-3.06-8.57l-4.44-12.19c1.55.29,3.07.43,4.57.43,2.1,0,4-.32,5.71-.95,1.71-.63,3-1.61,3.88-2.93.88-1.32,1.31-2.71,1.31-4.18,0-1.23-.33-2.32-.99-3.25-.66-.93-1.7-1.63-3.12-2.09-1.42-.46-3.61-.69-6.57-.69-1.01,0-2.05.02-3.12.06-1.08.04-2.33.08-3.77.11-.37,5.89-.69,13.07-.98,21.54-.28,8.47-.47,16.79-.55,24.94-4.8-.06-7.92-.09-9.36-.09-1.67,0-4.67.03-9.01.09Z"
            style="fill: #58595b;"/>
        <path
            d="m199.7,370.35c.55-5.05.98-9.61,1.3-13.66.32-4.05.59-8.75.82-14.09.23-5.34.4-10.98.52-16.91s.17-10.65.17-14.15c3.59.09,6.49.13,8.7.13s5.1-.06,8.4-.19c3.3-.13,6.52-.19,9.65-.19,3.67,0,6.95.14,9.82.43,2.15.2,4.11.62,5.88,1.25,1.77.63,3.25,1.4,4.46,2.3,1.21.91,2.21,1.92,3.01,3.04s1.43,2.43,1.87,3.94.67,3.12.67,4.85c0,1.92-.24,3.73-.73,5.41-.49,1.68-1.26,3.26-2.3,4.74-1.05,1.48-2.37,2.76-3.96,3.83s-3.83,2.18-6.7,3.3l2.24,5.47c.63,1.52,1.31,3.07,2.02,4.65l5.77,12.62c.26.55.72,1.62,1.38,3.23-4.74-.06-7.92-.09-9.56-.09-2.07,0-5.45.03-10.16.09-.46-1.49-1.29-4.26-2.5-8.31-.49-1.69-.91-3-1.25-3.92-.69-2.04-1.71-4.9-3.06-8.57l-4.44-12.19c1.55.29,3.07.43,4.57.43,2.1,0,4-.32,5.71-.95,1.71-.63,3-1.61,3.88-2.93.88-1.32,1.31-2.71,1.31-4.18,0-1.23-.33-2.32-.99-3.25-.66-.93-1.7-1.63-3.12-2.09-1.42-.46-3.61-.69-6.57-.69-1.01,0-2.05.02-3.12.06-1.08.04-2.33.08-3.77.11-.37,5.89-.69,13.07-.98,21.54-.28,8.47-.47,16.79-.55,24.94-4.8-.06-7.92-.09-9.36-.09-1.67,0-4.67.03-9.01.09Z"
            style="fill: #58595b;"/>
        <path
            d="m297.18,310.43c4.59,0,9.02.62,13.27,1.85,4.25,1.23,7.97,3.21,11.16,5.92,3.19,2.71,5.57,5.84,7.15,9.37,1.58,3.53,2.37,7.6,2.37,12.19,0,4.82-.87,9.25-2.61,13.29-1.74,4.04-4.24,7.46-7.52,10.27-3.27,2.81-7.18,4.88-11.72,6.18s-9.26,1.96-14.17,1.96-9.51-.64-13.96-1.92c-4.45-1.28-8.32-3.35-11.61-6.2-3.29-2.86-5.62-6.04-7-9.54-1.38-3.5-2.07-7.4-2.07-11.67,0-6.29,1.46-11.81,4.37-16.56,2.91-4.75,7.24-8.46,12.97-11.14s12.18-4.01,19.36-4.01Zm-.78,12.97c-3.3,0-6.29.81-8.96,2.43-2.67,1.62-4.72,3.88-6.16,6.76-1.44,2.89-2.15,5.98-2.15,9.28,0,3.04.65,5.83,1.96,8.36,1.31,2.53,3.3,4.5,5.97,5.92,2.67,1.42,5.5,2.13,8.49,2.13,3.19,0,6.11-.8,8.77-2.39s4.68-3.83,6.07-6.72c1.39-2.89,2.09-5.91,2.09-9.07s-.65-5.91-1.94-8.51c-1.29-2.6-3.19-4.62-5.69-6.05-2.5-1.44-5.31-2.15-8.44-2.15Z"
            style="fill: #58595b;"/>
        <path
            d="m337.94,370.35c.55-5.05.98-9.61,1.3-13.66.32-4.05.59-8.75.82-14.09s.4-10.98.52-16.91c.11-5.93.17-10.65.17-14.15,3.59.09,6.49.13,8.7.13s5.1-.06,8.4-.19c3.3-.13,6.52-.19,9.65-.19,3.67,0,6.95.14,9.82.43,2.15.2,4.11.62,5.88,1.25,1.77.63,3.25,1.4,4.46,2.3,1.21.91,2.21,1.92,3.01,3.04s1.43,2.43,1.87,3.94.67,3.12.67,4.85c0,1.92-.24,3.73-.73,5.41-.49,1.68-1.26,3.26-2.3,4.74-1.05,1.48-2.37,2.76-3.96,3.83s-3.83,2.18-6.7,3.3l2.24,5.47c.63,1.52,1.31,3.07,2.02,4.65l5.77,12.62c.26.55.72,1.62,1.38,3.23-4.74-.06-7.92-.09-9.56-.09-2.07,0-5.45.03-10.16.09-.46-1.49-1.29-4.26-2.5-8.31-.49-1.69-.91-3-1.25-3.92-.69-2.04-1.71-4.9-3.06-8.57l-4.44-12.19c1.55.29,3.07.43,4.57.43,2.1,0,4-.32,5.71-.95,1.71-.63,3-1.61,3.88-2.93.88-1.32,1.31-2.71,1.31-4.18,0-1.23-.33-2.32-.99-3.25-.66-.93-1.7-1.63-3.12-2.09-1.42-.46-3.61-.69-6.57-.69-1,0-2.05.02-3.12.06s-2.33.08-3.77.11c-.37,5.89-.69,13.07-.98,21.54-.28,8.47-.47,16.79-.55,24.94-4.8-.06-7.92-.09-9.36-.09-1.67,0-4.67.03-9.01.09Z"
            style="fill: #58595b;"/>
    </g>
</svg>
